<svg id="Layer_1" height="512" viewBox="0 0 512 512" width="512" xmlns="http://www.w3.org/2000/svg" data-name="Layer 1"><path d="m188.62 462.54h306.38v8.67a17.555 17.555 0 0 1 -17.56 17.55h-442.88a17.555 17.555 0 0 1 -17.56-17.55v-8.67z" fill="#556d8d"/><path d="m450.6 361.39 44.4 101.15h-171.62l-9.57-28.92h-115.62l-9.57 28.92h-171.62l45.33-101.26a17.621 17.621 0 0 1 8.5-8.69v-.01a16.521 16.521 0 0 0 3.09.28h364.16a17.269 17.269 0 0 0 3.9-.44l.03.15a17.54 17.54 0 0 1 8.59 8.82z" fill="#496275"/><path d="m435.56 88h-359.12a20.551 20.551 0 0 0 -20.44 20.26v227.05a17.768 17.768 0 0 0 14.65 17.34 18.494 18.494 0 0 0 3.27.35h364.16a18.907 18.907 0 0 0 4.08-.51 17.793 17.793 0 0 0 13.84-17.18v-227.05a20.551 20.551 0 0 0 -20.44-20.26z" fill="#556d8d"/><path d="m313.81 433.62 9.57 28.92h-134.76l9.57-28.92z" fill="#d4e1f4"/><rect fill="#eef5fe" height="218.43" rx="11.7" width="346.88" x="82.56" y="111.31"/><path d="m316.04 111.31a66.469 66.469 0 1 0 -105 77.45 46.071 46.071 0 0 1 11.1 15.7 47.328 47.328 0 0 1 3.86 18.87v6.67h60v-6.72a47.62 47.62 0 0 1 15.35-34.84 66.329 66.329 0 0 0 14.69-77.13z" fill="#f3e08c"/><path d="m291.1 230h-70.2a7.594 7.594 0 0 0 -5.52 2.085 7.307 7.307 0 0 0 -2.28 5.317 7.627 7.627 0 0 0 7.8 7.6h70.15a7.769 7.769 0 0 0 5.545-2.18 7.217 7.217 0 0 0 2.292-5.265 7.575 7.575 0 0 0 -7.787-7.557z" fill="#556d8d"/><path d="m287.9 245h-63.8a7.891 7.891 0 0 0 -5.52 2.39 8.128 8.128 0 0 0 -2.28 5.66 7.927 7.927 0 0 0 7.8 7.95h63.8a7.882 7.882 0 0 0 5.52-2.38 8.14 8.14 0 0 0 2.28-5.665 7.931 7.931 0 0 0 -7.8-7.955z" fill="#496275"/><path d="m284.7 260.82a7.81 7.81 0 0 1 0 15.62h-57.4a7.81 7.81 0 0 1 0-15.62z" fill="#556d8d"/><path d="m425.59 375.01 13.49 36.32h-366.16l13.49-36.32z" fill="#eef5fe"/><path d="m113 111h-18.3a11.7 11.7 0 0 0 -11.7 11.7v194.6a11.7 11.7 0 0 0 11.7 11.7h18.3z" fill="#d1dbe5"/><g fill="#264060"><path d="m444 414.589a5.836 5.836 0 0 0 .7-5.433l-13.49-36.282a5.968 5.968 0 0 0 -5.622-3.874h-339.176a6.005 6.005 0 0 0 -5.625 3.915l-13.487 36.239a5.782 5.782 0 0 0 5.622 7.846h366.156a5.852 5.852 0 0 0 4.922-2.411zm-362.449-9.589 9.032-24h330.834l9.032 24z"/><path d="m108 235.728a6 6 0 0 0 6-6v-66.616a6 6 0 1 0 -12 0v66.616a6 6 0 0 0 6 6z"/><path d="m108 151.353a6 6 0 0 0 6-6v-3.2a6 6 0 0 0 -12 0v3.2a6 6 0 0 0 6 6z"/><path d="m256 54.541a6 6 0 0 0 6-6v-25.3a6 6 0 0 0 -12 0v25.3a6 6 0 0 0 6 6z"/><path d="m351.3 150h25.313a6 6 0 0 0 0-12h-25.313a6 6 0 0 0 0 12z"/><path d="m135.385 150h25.315a6 6 0 0 0 0-12h-25.315a6 6 0 0 0 0 12z"/><path d="m325.242 80.584a5.978 5.978 0 0 0 4.241-1.756l19.753-19.74a6 6 0 1 0 -8.483-8.488l-19.753 19.74a6 6 0 0 0 4.241 10.244z"/><path d="m182.517 78.828a6 6 0 0 0 8.483-8.488l-19.753-19.74a6 6 0 1 0 -8.483 8.488z"/><path d="m208 149.415a6 6 0 0 0 6-6 44.875 44.875 0 0 1 13.4-32.108 45.609 45.609 0 0 1 9.008-6.94 6 6 0 0 0 -6.071-10.351 57.656 57.656 0 0 0 -11.381 8.764 56.793 56.793 0 0 0 -16.956 40.635 6 6 0 0 0 6 6z"/><path d="m248.7 99.289a6.045 6.045 0 0 0 1.225-.126 45.667 45.667 0 0 1 5.484-.792 6 6 0 1 0 -.99-11.959 57.616 57.616 0 0 0 -6.931 1 6 6 0 0 0 1.212 11.877z"/><path d="m500.494 460-44.394-101.08a22.707 22.707 0 0 0 -3.072-5.305 23.6 23.6 0 0 0 8.976-18.3v-227.05a26.582 26.582 0 0 0 -26.448-26.265h-135.956a72.385 72.385 0 0 0 -87.27 0h-135.886a26.582 26.582 0 0 0 -26.444 26.265v227.048a23.683 23.683 0 0 0 9.536 18.774 23.116 23.116 0 0 0 -2.767 4.738l-45.29 101.258h.025a5.951 5.951 0 0 0 -.5 2.45v8.673a23.79 23.79 0 0 0 23.555 23.794h442.882a23.79 23.79 0 0 0 23.559-23.792v-8.673a7.691 7.691 0 0 0 -.508-2.535zm-287.084-363.108a60.479 60.479 0 1 1 83.857 87.152 53.893 53.893 0 0 0 -17.267 39.289v.667h-18v-49.812a10.268 10.268 0 0 0 3.843.717c5.736 0 8.548-4.182 10.059-6.429.24-.356.566-.842.818-1.167a6 6 0 0 0 -.72-11.958c-5.735 0-8.547 4.182-10.058 6.429l-.1.149c-.034-.052-.068-.1-.1-.149-1.511-2.247-4.323-6.429-10.058-6.429s-8.546 4.183-10.057 6.43c-.03.047-.063.094-.1.144l-.1-.144c-1.51-2.247-4.322-6.43-10.057-6.43a6 6 0 0 0 -.719 11.958c.252.325.578.81.817 1.166 1.51 2.247 4.322 6.43 10.057 6.43a10.127 10.127 0 0 0 4.468-.994v50.089h-17.993v-.667a52.941 52.941 0 0 0 -16.947-38.992 60.417 60.417 0 0 1 -1.643-87.449zm10.69 158.108a2.01 2.01 0 0 1 0-4h63.8a1.984 1.984 0 0 1 1.808 2 2.118 2.118 0 0 1 -1.96 2zm62.4 13.5c0 1-.811 1.5-1.807 1.5h-57.393c-1 0-1.807-.5-1.807-1.5s.811-1.5 1.807-1.5h57.4c.993 0 1.8.5 1.8 1.5zm-65.543-29.5c-1 0-1.834-.5-1.834-1.5s.785-1.5 1.782-1.5h70.195c1 0 1.808.5 1.808 1.5s-.811 1.5-1.808 1.5zm-158.957-130.735a14.307 14.307 0 0 1 14.265-14.265h123.583a72.38 72.38 0 0 0 -7.448 11h-98.136a17.264 17.264 0 0 0 -17.264 17.264v27.736a6 6 0 0 0 12 0v-26.991a6.027 6.027 0 0 1 6.009-6.009h92.162a72.5 72.5 0 0 0 19.768 76.182 40.915 40.915 0 0 1 13.061 30.151v.3a13.949 13.949 0 0 0 -12.943 13.767 13.775 13.775 0 0 0 4.4 10.057 13.758 13.758 0 0 0 3.214 15.616 12.7 12.7 0 0 0 -1.173 5.557 13.784 13.784 0 0 0 13.882 13.37h57.1c7.666 0 14.213-6.275 14.017-13.938a13.248 13.248 0 0 0 -1.173-5.1 13.6 13.6 0 0 0 3.2-15.534 13.766 13.766 0 0 0 4.417-10.044 13.936 13.936 0 0 0 -12.941-13.753v-.348a41.823 41.823 0 0 1 13.444-30.455 72.456 72.456 0 0 0 19.377-75.828h92.915a5.264 5.264 0 0 1 5.264 5.264v195.778a5.975 5.975 0 0 1 -5.958 5.958h-322.084a5.975 5.975 0 0 1 -5.958-5.958v-126.042a6 6 0 0 0 -12 0v126.042a18.011 18.011 0 0 0 17.958 17.958h322.778a17.264 17.264 0 0 0 17.264-17.264v-196.472a17.264 17.264 0 0 0 -17.264-17.264h-98.167a72.521 72.521 0 0 0 -7.478-11h123.465a14.487 14.487 0 0 1 14.444 14.444v226.869a11.721 11.721 0 0 1 -11.687 11.687h-364.396a11.952 11.952 0 0 1 -11.917-11.917zm5.811 255.7a11.684 11.684 0 0 1 4.243-5l368.667-.187a12.068 12.068 0 0 1 4.386 5.293l40.706 92.929h-158.1l-8.206-24.843a6.038 6.038 0 0 0 -5.7-4.157h-115.621a6.038 6.038 0 0 0 -5.7 4.157l-8.202 24.843h-158.024zm247.265 93.035h-118.152l5.6-17h106.955zm173.924 14.208a11.778 11.778 0 0 1 -11.559 11.792h-442.882a11.778 11.778 0 0 1 -11.559-11.792v-2.208h466z"/></g></svg>